<svg version="1.2"
    xmlns="http://www.w3.org/2000/svg" viewBox="0 0 960 960" width="960" height="960">
    <path fill="#fff" d="m480.2 960q-99.3 0-186.4-37.8-87.1-37.8-152.7-103.2-65.5-65.5-103.3-152.5-37.8-87.1-37.8-186.3 0-99.3 37.8-186.4 37.8-87.1 103.2-152.7 65.5-65.5 152.5-103.3 87.1-37.8 186.3-37.8 99.3 0 186.4 37.8 87.1 37.8 152.7 103.2 65.5 65.5 103.3 152.5 37.8 87.1 37.8 186.3 0 99.3-37.8 186.4-37.8 87.1-103.2 152.7-65.5 65.5-152.5 103.3-87.1 37.8-186.3 37.8zm-0.2-41q181.5 0 310.3-128.7 128.7-128.8 128.7-310.3 0-181.5-128.7-310.3-128.8-128.7-310.3-128.7-181.5 0-310.3 128.7-128.7 128.8-128.7 310.3 0 181.5 128.7 310.3 128.8 128.7 310.3 128.7zm204.2-204.2l30.3-30.3-212-213.3v-266h-41.1v283.6z"/>
</svg>