<svg version="1.2"
    xmlns="http://www.w3.org/2000/svg" viewBox="0 0 960 960" width="960" height="960">
    <path fill-rule="evenodd" d="m457.3 21.4c-9.7 0.7-43.4 1.3-59.4 2.5-30.1 2.1-60 6.1-72.7 10-12.1 3.7-12.3 6.7-1.3 28.5 5.2 10.6 9.6 20.1 9.6 21.2 0 1-6.6 4.9-14.7 8.5-49.1 22.8-95 56.2-134.3 97.8l-20.5 21.6-34.7-0.9-34.6-1-5.6 6c-17.4 18.5-45.7 72.9-61.3 117.4-7.6 22-18.7 63.5-22 82.2-6 34.1-5.4 100.9 0.9 105.5 1.6 1.2 13.9 2.7 27.4 3.5 13.5 0.5 25.3 1.9 26.2 2.9 0.8 0.7 2.9 10.6 4.5 21.6 4.6 32.9 19.1 82.3 34.5 117.8 7.7 17.4 20.8 39.7 33.9 57.7 5.2 7.1 9.5 13.3 9.5 13.9 0 0.5-11.4 5.6-25.1 11.1-16 6.6-25.5 11.6-26.2 13.7-0.6 1.8 0.4 5.8 1.9 8.7 3.9 7.4 34.5 41.7 48.6 54.4 31.6 28.6 92.9 69.4 132.8 88.9 34.7 16.8 55.9 23.6 78.3 24.7 25.4 1.2 48-1 49.3-4.8 0.8-1.7 0.4-10.8-0.6-20.3l-1.7-17.1 15.4 1.5c29.3 2.9 92.2 1.4 122.4-3.3 15.5-2.1 31.5-5 35.7-5.9 4.2-1.2 8.5-2.2 9.4-2.4 1-0.1 1.6 9.3 1.4 21.3l-0.4 21.6 6.6 1.1c3.6 0.8 23.3 0.2 43.7-0.9l37.4-2.4 24.7-12.3c67.1-33.6 124.3-74.3 166.9-118.2 12.4-13 15.8-17.6 15.5-21.4-0.4-3.7-6-8.3-25.3-21.1-13.5-9-24.5-17.3-24.5-18.3 0-1.1 5.2-13.3 11.4-27.2 28.1-62.1 47.8-133.6 51.5-188.4l1.3-19.3 33 0.6 32.9 0.7 0.6-10c0.8-12.3-7.5-66.1-15.2-99.9-16.6-72.5-51.7-175.1-61.5-180.3-4.2-2.3-49.2-7.7-63.8-7.7-9.3 0-11.4 0.7-16 5.6l-5.2 5.4-27.4-27.2c-30.5-30.5-59.6-54.6-90-74.5-31.4-20.6-28.7-16.6-22.2-31 2.9-6.8 7.9-16.4 11-21.3 6.2-10.2 6.7-14.4 1.9-16.9-4.6-2.3-63.6-13-92.7-16.6-13.1-1.6-121.2-7.3-121.2-7.3zm128 50.5c-6 12.7-10.8 23.5-10.8 24.1 0 0.6 13.3 1.1 29.3 1.1h29.5l10-19.2c5.6-10.5 9.4-19.5 8.7-20.1-2.7-1.5-42.8-8.9-49.4-8.9-6.2 0-6.6 0.4-17.3 23zm-176.6-5.2c-15.4 0.9-28.6 2.5-29.1 3.1-0.8 0.7 2.1 10 6.1 20.6 4.1 10.6 7.2 20.1 7 21-0.4 1-7.9 3.7-16.8 6.2-32.4 9.3-92.3 42.6-127 70.8-20.5 16.6-50.5 45.9-64.6 63-6.6 8-19.7 25.5-28.9 39-9.3 13.7-17.4 24.7-18 24.7-0.5 0-6.3-5-12.9-11.2-6.5-6-15.4-13.9-19.8-17.4l-8.1-6.3-2.9 5.8c-7.1 13.7-20.8 49.3-26.2 68.8-11.4 40.5-24.7 109-22.8 117.1 0.4 2.1 5.6 1.5 25.5-2.9 13.7-3.1 26-5.2 27.1-4.6 1.6 0.6 1.6 5.4 0.2 17.7-3 29.9 4.7 84.5 18.2 124.2 11.3 34.4 38.9 81.8 72.3 124.2 8 10.5 14.4 19.5 14 20.5-0.4 0.8-9.4 8.1-20.4 16.4-10.8 8.1-20.3 15.8-20.8 16.8-2.9 4.6 38.3 38.9 79.2 66.1 16.4 11 56.5 32.8 57.8 31.5 0.4-0.4 2.5-12.2 4.5-26.5 2.1-14.1 4.6-26.4 5.7-27.6 1.2-1.1 5.1-0.1 11.2 2.9 35.3 18 116.7 31.1 162.7 26.5 39.5-3.9 73.5-12.6 116.3-29.5 15.6-6.2 25.2-9.1 26.4-8 0.9 1 3.3 14.1 5 28.8 1.7 14.8 3.5 28.1 3.8 29.5 0.4 1.5 5.1-0.4 13.7-5.6 42.1-25.7 79.6-55.2 101.4-79.5l13.1-14.6-13.1-7.5c-7.1-4.3-16.5-9.5-20.8-11.6-14.3-7.5-14.3-6.4 0-22.8 38.2-43.8 67.7-110.5 78.9-178.2 4.6-28.7 7.3-70.2 5.7-94.3l-1.3-22 9.4 1.2c15.8 1.9 49 3.8 49 2.9 0-4.3-6.9-36.3-10.6-49.8-13.9-49.6-41.8-123.4-46.8-123.4-0.8 0-10.8 7.9-22.4 17.5-11.4 9.7-21 17.4-21.2 17-0.4-0.4-4.3-6.6-8.5-13.7-18.7-31.3-50.5-68.5-78.5-92-37.5-31.4-90-61.7-132.6-76.4-14.8-5.2-20.6-8.1-20.6-10.4 0-1.7 2.7-11.8 5.8-22.4 3.1-10.6 5.8-20.2 5.8-21.4 0-1.3-3.9-2.7-8.7-3.1-7.3-0.5-8.3-0.2-5.6 1.8 4 2.9 2.1 8.3-2.9 8.3-5 0-6.9-3.3-3.9-7 1.2-1.5 2-3.3 1.4-3.6-1.9-2-85.4-2.6-111.4-0.6zm-17.4 15c-2.1 0-3.8-1.7-3.8-3.8 0-2.2 1.7-3.9 3.8-3.9 2.2 0 3.9 1.7 3.9 3.9 0 2.1-1.7 3.8-3.9 3.8zm196.7 20.1c0 0.6 12.9 7.5 28.7 15.6 62.8 31.8 117.6 76.6 146.7 120 5.8 8.6 11 15.8 11.5 15.8 0.6-0.2 4.3-4.1 8.5-8.7l7.3-8.3-4-6.5c-5.8-9.3-61.7-63.7-81.2-78.7-22.9-18-46.2-33.6-61.3-41.1-11.5-5.8-15.4-6.6-34.7-7.7-11.7-0.8-21.5-1-21.5-0.4zm-143.7 75.8c-54.3 3.3-114.9 23.5-159.6 53.4-5.2 3.5-5.2 3.3 2.7-11.2 10-18.7 8.7-21-7.9-12.9-44.7 22.2-96 76.6-120.7 128.1-10.4 21.9-8.6 23.3 12 10 7.3-4.6 13.5-7.9 13.9-7 0.2 0.8-2.5 8-6.2 15.9-31.6 68.8-36.4 159.9-12.3 235.1 11.3 35.5 28.9 70.2 49.9 98.5 6.4 8.7 11.4 16 10.8 16.4-0.4 0.4-10-4-21.4-9.8-11.4-5.8-21.6-10.6-22.6-10.6-6.7 0 12.4 28.9 34.5 52.4 37.8 39.6 84.7 70.2 133.3 87.2 31.4 11 32.1 9.7 8.8-14.1-9-9.2-16.4-17.3-16.4-18.1 0-0.6 5 0.6 11 2.7 41.7 14.3 115.1 19.1 160.6 10.4 22-4 50.5-11.9 64-17.3 6.2-2.5 11.2-3.9 11.2-2.9 0 0.9-5.8 9.2-12.7 18.5-7 9.1-12.2 17-11.6 17.5 1.7 1.8 26.6-7.3 44.5-16.4 35.3-17.5 65.8-40.1 97.8-72.3 23.7-24.1 39.1-43.6 36.6-46.1-1.2-1.1-7.7-0.6-16.4 1.2-15.2 3.3-24.5 3.8-24.5 1.9 0-0.6 2.9-4.6 6.6-9.1 18.9-23.5 42-75.9 50.1-114.1 7.5-35.1 9-79.9 4-113.8-5.6-36.5-19.6-80.7-32.3-101.3l-4.1-6.5 9.4 5.4c5.4 3 16 10.2 24 16 7.7 5.6 14.8 10.2 15.8 10.2 9.4 0-17.6-49-47.8-86.8-24.3-30.5-70.4-73.3-78.9-73.3-3.3 0-3.5-2.3 2.1 20.1 2.7 10.6 4.5 19.4 4.1 20-0.6 0.4-6-3.5-12.2-8.9-29.7-25.4-77.3-49.7-117.9-60.1-23.9-6-60.2-9.7-82.2-8.3zm-14.4 5.6c-16.4 2.1-48.6 9.4-64.6 14.6-32 10.4-75.4 33.6-91.2 48.4-11.2 10.8-10.4 3.5 1.9-16.5 6.4-10.5 11.2-19.3 10.7-19.9-1.4-1.4-11.4 3.8-24.9 12.9-27.6 18.7-56.3 48.2-78.5 80.8-10.4 15.3-23.3 38-23.3 41.5 0 0.6 3.7-1.4 8.1-4.4 13.9-9.3 26.8-16.2 27.9-15.1 0.8 0.6-2.8 9.5-7.9 19.5-19.8 40.5-29.8 80.6-31.4 128.4-1.5 46.3 2.9 79.9 16 119.4 12.6 37.8 33.8 76 58.2 105.5 9.1 10.8 12 16 8.9 16-2.3 0-35.1-14-40.9-17.7-3.4-2.1-6.7-3.5-7.3-3.1-1.7 1.7 18.3 28 32.2 42.1 27.4 27.7 57.8 50.1 92.3 67.5 15.9 7.9 44 19.2 47.9 19.2 0.5 0-3.7-5-9.5-11.1-14.8-15.3-24.9-27.8-23.9-29.4 0.4-0.7 10.6 2 22.6 6 34.7 11.6 53.4 14.1 104.6 14.3 39.2 0 46.7-0.6 64.4-4.4 24.5-5.4 54-14.7 66.1-20.9 5-2.5 9.7-4.6 10.3-4.6 3.2 0-0.4 8.7-9.5 22.2-5.8 8.5-9.8 15.6-8.9 16 0.8 0.4 9.3-2.9 18.9-7 33.2-14.2 79.3-48.2 111.3-81.5 20.8-21.8 29.8-33.4 24.8-32.1-8.6 2.7-27.3 5.3-37 5.3h-10.4l12.2-13.2c26.6-28.3 51.8-87.7 59.7-141.3 3.5-23.8 3.1-72-1.1-95.3-6.2-35.5-18.2-71-31.9-94.3-4.2-7.2-7.1-13.9-6.5-14.9 1.3-2.3 18.3 6.4 35.8 18.9 8.3 5.8 15.1 9.5 15.1 8.3 0-7.7-28.9-52.1-51.7-79.1-15.6-18.7-41-43.9-55.9-55.5-4.4-3.7-8.1-6.2-8.1-5.8 0 0.4 2.1 10.2 4.8 21.8 2.7 12.1 4.1 21.8 3.1 22.8-0.9 0.9-6.9-3.3-14-10.3-31.5-30.8-91.2-60.7-140.6-70.4-15.8-3.1-65.1-5.4-78.8-3.6zm411.5 67.7c8.9 17.7 21.1 45.1 26.8 60.7 18 47.1 33.8 114.6 37.1 157.4l1.3 17.8h17.9 18.2v-7.4c0-10.2-6.6-50.5-13.5-83.9-7.9-38.6-23-86.4-46.7-149.8l-8.3-22-7.7-1.4c-4.2-0.7-15.2-1.9-24.5-2.7l-16.7-1.3zm-395 2.5l-9.3 30.8-6.9 1.2c-31.8 5.6-66.3 20.4-97.2 41.8-4 2.9-4.8 2.2-5.6-5.2-0.6-5.4 0.8-6.9 20.5-21 11.7-8.3 22.5-15.8 24.1-16.6 1.5-0.9 2.5-2.1 1.9-2.7-0.6-0.4-33-1.1-72.3-1.5-54.9-0.6-71.3-0.2-71.3 1.7 0 1.2 10.4 9.7 23.1 18.5l22.9 16.2 6 28.2 6.2 28.2-5.8 9.2c-15.2 24.1-32 70-32.2 87 0 12.5-1.3 13.7-29.7 27.6-14.8 7.5-27.2 14.4-27.2 15.6 0 1.2 13.5 5.6 29.9 9.8 16.6 4.3 30.3 8 30.5 8.1 0.4 0.2 2.3 7.4 4.2 15.9 2.1 8.4 7.2 23.3 11.4 33.1 20 46.7 46.5 76.8 87.1 99.6l13.9 7.7 12 48.2c12.9 52.6 15.2 56.9 19.6 36.6 1.4-6.3 5.8-24.8 9.7-41 7.7-32.8 6.3-31.1 23.9-28.2l6.7 1.2 9.5 26.8c5.4 15.6 10.2 26.6 11.3 26.2 1.2-0.4 5.2-12.4 9.1-26.6l6.9-25.9 10.2-1.1c6.2-0.6 10.5-0.2 10.8 0.9 0.4 1.2 4.7 16 9.5 33 12.5 43 12.5 43.4 15.6 43.4 1.4 0 3.5-3.7 4.8-8.3 1.2-4.4 6.4-23.7 11.6-42.8 5.2-19.1 9.4-35.9 9.4-37.2 0-1.2 2.5-3.7 5.4-5.4 35.5-21.4 66.2-48.4 85.6-75.4 17.6-24.3 14.1-26.7-8.1-5.4-10 9.4-23.1 20.4-29.1 24.5-14.8 9.8-40.3 23.3-41.4 22.1-0.6-0.5 6.1-27.5 14.8-59.9l16-58.9 20.8-9.2c11.6-5 20.7-9.9 20.5-10.8-0.4-1-6.8-4.5-14.1-7.6-7.3-3.2-14.3-6.5-15.2-7.5-1.8-1.7 17.7-82.7 20-82.7 3.7 0 17.2 34.1 26.2 66.1 3.9 13.7 7.2 13.3 9.1-0.7 4-29.3 18.9-132.9 20-139.3 0.8-5.6 0.6-7.1-1.7-7.1-1.5 0-4.2 3.3-6.2 7.1-1.7 4.1-9 16.2-16 27.4l-12.7 20.1-4.4-5.6c-2.5-3.1-4.5-7-4.5-8.5 0-1.8 3.3-14.5 7.2-28.8l7.1-25.6 26-15.4c14.5-8.3 26.4-16.2 26.8-17.4 0.6-1.5-6.1-1.9-25-1-14.1 0.8-46.1 2.4-71 3.3-24.8 1-45.5 2.3-45.9 2.7-2.1 2.1 3.1 5.6 22.8 15.6 21.4 11 22.4 12 19.5 21.5-1.2 4-2 3.8-13.9-5.5-26-19.8-76.9-40.1-101-40.1-4.5 0-9.5-1.1-11.2-2.5-2.5-2.1-17-50.1-17-56.9 0-1.3-1.1-2.3-2.5-2.3-1.5 0-6 11.4-11.7 30.7zm-321.8-10.4c8.1 10 15.5 18.1 16 18.1 0.6 0 6.6-7.7 13.1-16.8 14.5-20 15.5-19.3-20.4-19.5l-23.7-0.2zm136.3-15.2c-1.6 3.9 3.3 6.9 6.3 4.2 3.1-2.3 1.4-7.3-2.3-7.3-1.5 0-3.2 1.4-4 3.1zm405 17.2c-0.8 1.7-0.4 4 0.8 5.2 2.9 2.9 8.4 0.2 7.7-3.9-0.8-4.4-7-5.4-8.5-1.3zm139.9 42.4c-2.8 3.3-0.9 6.8 3.9 6.8 2.5 0 3.9-1.4 3.9-3.7 0-4.6-4.9-6.6-7.8-3.1zm-709 7.9c-3.2 1.4-2.9 8.3 0.8 9.7 1.5 0.7 4.4-0.2 6-1.8 2.5-2.7 2.7-3.6 0.6-6.2-2.5-3-3.3-3.2-7.4-1.7zm327.9 25.7c-27.7 6.7-58.2 24.8-78.8 46.6l-9.8 10.5 7.3 48.2c8.3 56.7 10.8 70.6 12.7 72.5 1 0.8 8.9 3.8 17.7 6.9 9.1 3.3 16.8 6.8 17.2 7.9 0.4 1.2-5.6 5.2-13.1 9.1-7.5 3.7-14.3 8.1-14.8 9.8-1.6 3.9 18.5 114.4 21.5 119.4 1.4 2.2 6.8 5.6 12.2 7.9 8.9 3.9 10 3.9 10.8 1 0.6-1.7 6.2-30.1 12.7-62.9 6.6-33 12.1-61.3 12.7-63 0.6-2.4-3.2-5.6-14.6-12.2-8.5-4.8-15.4-9.6-15.4-10.6 0-1 7.7-4.4 16.9-7.7l17.2-6.2 7.1-38.9c4.1-21.5 7.7-40.4 8.3-42.3 2.3-8.9 6 0.8 13.3 34.9 4.4 20.5 8.5 38.2 9.1 39.8 0.5 1.3 4.4 3.6 8.4 5 19.5 6.3 37.4 14 35.9 15.4-0.8 0.8-8.5 5.2-17 9.6-8.4 4.5-16 8.7-16.7 9.3-1.2 1.2 12.1 68.5 24.6 125.4l3.1 14.2 8.9-1.3c5-0.8 9.2-1.6 9.6-1.9 0.6-0.8 29.3-134.7 29.3-137.6 0-1.3-6.5-5.6-14.4-9.6-7.9-3.9-14.5-7.7-14.5-8.5 0-0.6 8.1-4.4 17.7-8.1 9.9-3.8 18.9-7.7 20.1-8.5 1.3-0.7 7.1-27 13.1-58.2 6-31.5 11.4-58.8 12-61.2 0.9-3.4-1.8-6.3-14.5-16.4-28.7-22.7-69.2-40.3-94.7-40.8l-12.5-0.2-6.9 20c-3.9 11.2-7.9 20.5-8.9 20.9-1.1 0.3-5.4-8.9-9.2-20.7-3.9-11.8-7.8-21.2-8.3-21.2-0.8 0.2-7.6 1.7-15.3 3.7zm-251.1 5.9c0 2.9 0.9 3.9 3.2 3.5 5-1 5.6-7.3 0.8-7.3-2.9 0-4 1.1-4 3.8zm580.2 18.4c-2 0-3.6-1.5-3.6-3.4 0-1.9 1.6-3.4 3.6-3.4 1.9 0 3.5 1.5 3.5 3.4 0 1.9-1.6 3.4-3.5 3.4zm100.6 83.3c-3.8 1.3-2.9 8.3 1.4 8.3 2.1 0 4.4-1 5.2-2.1 1.5-2.7-3.3-7.4-6.6-6.2zm-553.6 14.4c-8.1 26.5-10.2 65.6-4.8 90.5 5.8 27.6 26.4 65.2 46.1 84.5l8.6 8.5-2.7-11.4c-1.5-6.4-6.3-27.4-11-46.9l-8.2-35.3-15.8-9c-8.9-4.9-16-9.5-16-10.3 0-0.7 4.8-4 10.6-7.3 5.9-3.5 10.6-6.9 10.6-7.9 0-2.3-13.5-62.3-14.3-63.1-0.2-0.2-1.6 3.3-3.1 7.7zm-246.7 8.3c-2.2 2.5-2 3.7 0.7 6.2 2.9 3.1 3.3 3.1 6.4 0 2.7-2.5 2.7-3.7 0.8-6.2-1.4-1.5-3.3-2.9-4.1-2.9-0.8 0-2.5 1.4-3.8 2.9zm795.3 43.8c-0.5 2.5-2.3 14.3-4 26.6-6.4 44.8-17.2 89.7-31.1 126.9-8.4 23-26.7 61.6-36 76.2-3.9 6-7.1 11.4-7.1 12 0 0.6 8.8 0.8 19.6 0.4l19.5-0.4 10.4-19.3c30.3-57.1 53.4-139.3 59.6-211.8l1.1-14.8h-15.6c-14.4 0-15.6 0.2-16.4 4.2zm-795.3 7.9c-15.1 5.6-15.8 6.2-10.6 7.4 3.2 0.5 10.8 1.3 16.7 1.3 11.6 0.4 13.1-1 13.1-10.4 0-5.6 1-5.8-19.2 1.7zm388.6 100.1c-8.5 33.2-15.6 61.7-16.2 63.5-0.6 2.5 1.5 3.6 8.7 5.2 5 1.1 9.6 1.7 10.2 1.3 0.6-0.3 3.6-10.4 6.7-22.1 3.3-11.6 6.8-21.3 7.9-21.3 1.2 0 3.7 6.2 5.6 13.9 2 7.7 4.8 18.4 6.4 23.4l2.7 9.4 7.7-0.9c4.2-0.6 8.1-1.6 8.7-2.2 1.1-1.1-30.1-126.9-32-129-0.6-0.8-8.1 25.8-16.4 58.8zm-47.2 95.3c0 1.9 0.9 5.4 1.7 7.5 1.7 4.1 1.7 4.3 2.7-7.1 0.2-1.2-0.8-2.7-2.1-3.1-1.4-0.4-2.3 0.8-2.3 2.7zm314.8 5.6c-0.8 1.7-0.2 4 0.9 5.2 2.7 2.7 9.1-2.7 7.1-6-1.9-3.3-6.7-2.7-8 0.8zm-499.1 10.6c-0.8 1.2-0.4 3.1 0.5 4.2 2.7 2.6 8.7 0.4 7.8-2.8-1.2-3.3-6.6-4.1-8.3-1.4zm563.1 28.6c0.9 0.9 9.8 8.4 19.4 16.3l18 14.9h21.2c12.9 0 21.2-0.8 21.2-1.9 0-1.2-0.8-2-1.8-2-0.7 0-11.3-6.5-23.3-14.4l-21.6-14.5h-17.5c-10.2 0-16.8 0.6-15.6 1.6zm16.1 56.8c-37.7 37.1-82.3 70.1-137 100.9l-25.8 14.5 20.2-1.2c19.3-1.3 21.2-1.7 38.5-10.8 59.6-30.6 115.5-69.8 163.9-115.1l10.6-10h-24.1-24.1zm-618-17c-0.8 1.7-0.4 4 0.8 5.2 2.9 2.9 8.4 0.2 7.7-3.9-0.8-4.4-7-5.4-8.5-1.3zm432 5c-0.8 1.2-0.2 3.3 1.3 4.6 3.3 3.5 8.5 0.6 6.8-3.6-1.4-3.7-6.2-4.3-8.1-1zm-278 10.6c-1.5 4.2 3.7 7.1 7 3.7 1.3-1.4 2.1-3.5 1.3-4.7-1.9-3.2-6.7-2.7-8.3 1zm-40.3 67.1c-1.3 3.5 0.6 7 4.1 7 3.4 0 5-4.9 2.3-7.6q-4.4-4.2-6.4 0.6zm44.4 1.6c0.5 2.3 2.1 15.4 3.2 28.9l2.4 24.3 6.9 1.2c3.8 0.5 15.4 1.5 25.8 2.3l18.7 1.1v-4.8c0-7.9-4-37-5.4-38.4-0.7-0.7-8.6-3.6-17.7-6.1-9.1-2.7-20.6-6.6-25.6-8.9l-9.5-4.1zm188.3-167.1l6.2-1.6-3.5 9.6z"/>
    <path fill-rule="evenodd" d="m641 868c-2.2 0-4-1.6-4-3.5 0-1.9 1.8-3.5 4-3.5 2.2 0 4 1.6 4 3.5 0 1.9-1.8 3.5-4 3.5z"/>
    <path fill-rule="evenodd" d="m745.5 787c-2.5 0-4.5-2-4.5-4.5 0-2.5 2-4.5 4.5-4.5 2.5 0 4.5 2 4.5 4.5 0 2.5-2 4.5-4.5 4.5z"/>
</svg>